<?xml version="1.0" encoding="utf-8"?>
<!-- Generator: Adobe Illustrator 26.1.0, SVG Export Plug-In . SVG Version: 6.00 Build 0)  -->
<svg version="1.1" id="Laag_1" xmlns="http://www.w3.org/2000/svg" xmlns:xlink="http://www.w3.org/1999/xlink" x="0px" y="0px"
	 viewBox="0 0 116 120" style="enable-background:new 0 0 116 120;" xml:space="preserve">
<style type="text/css">
	.st0{fill:#FFFFFF;}
</style>
<g>
	<g>
		<path d="M29.7,51.5l0.5-0.1V52v3.4v0.4l-0.4,0.1L29.1,56L28.6,56v-0.5v-3.4v-0.4l0.4-0.1L29.7,51.5z M58.2,70.6l0-0.5l-0.5,0.1
			l-0.6,0.1l-0.4,0.1v0.4l-0.1,8.8l0,0.5l0.5-0.1l0.8-0.1l0.4-0.1v-0.4L58.2,70.6z M29,41.3l-0.4,0.1v0.4v3.4v0.5l0.5-0.1l0.7-0.1
			l0.4-0.1v-0.4v-3.4v-0.5l-0.5,0.1L29,41.3z M116,81.5v4.3c0.1,9.1-3.5,17.8-10,24.2c-6.4,6.5-15.1,10.1-24.2,10H20.5
			c-5.5,0.1-10.7-2.1-14.5-6c-3.9-3.8-6.1-9-6-14.5v-79C-0.1,15,2.1,9.8,6,6c3.8-3.9,9-6.1,14.5-6H78c8.6-0.1,17,3.3,23,9.5
			c6.2,6,9.6,14.4,9.5,23v2.2c0,3.8-0.7,7.5-2,11c-1.2,3.4-2.9,6.5-5.2,9.3c3.8,3.2,7,7.2,9.2,11.7C114.9,71.3,116.1,76.3,116,81.5
			 M60.9,36.1l0,17.2c-0.1,1.5,0.3,2.9,1.2,4.1c1,1,2.3,1.5,3.7,1.4c0.4,0,0.8,0,1.2-0.1l15.8-2c4-0.5,6.2-3,6.1-7v-8.8l-13.2,1.6
			c0,0,0,0,0,0c0,0,0,0,0,0.1l0,5.9l2.2-0.3l0.5-0.1l0,0.5l0,0.7l0,0.4l-0.4,0.1l-3.4,0.4l-0.5,0.1v-0.5l0-13.7v-0.4l0.4-0.1
			l0.7-0.1l0.5-0.1V36v4.9l13.2-1.6c0,0,0,0,0,0c0,0,0,0,0-0.1l0-6.7c0-3.5-1.8-5.5-4.9-5.5c-0.4,0-0.7,0-1.1,0.1l-15.8,2
			C63.1,29.6,60.9,32.1,60.9,36.1 M45.1,31.9l0,29.5l13.1-1.6c0,0,0,0,0,0c0,0,0,0,0-0.1l0-29.5L45.1,31.9
			C45.1,31.8,45.1,31.8,45.1,31.9C45.1,31.9,45.1,31.9,45.1,31.9 M41.8,83.7l0-6.6L33,78.2l-0.5,0.1l0-0.6l0-0.7l0-0.4l0.4-0.1
			l8.8-1.1c0,0,0,0,0,0c0,0,0,0,0-0.1V64.7l-22.4,2.8c0,0,0,0,0,0c0,0,0,0,0,0.1l0,29.5l13.1-1.6c0,0,0,0,0,0c0,0,0,0,0-0.1l0-10.1
			v-0.4l0.4-0.1L41.8,83.7C41.7,83.7,41.8,83.7,41.8,83.7 M43.4,55.4l0-3.2c0.2-2-1-4-2.9-4.8l-0.7-0.3l0.7-0.5
			c1.8-1.1,2.9-3.1,2.9-5.2l0-3.2c0-3.6-1.7-5.5-4.9-5.5l0,0c-0.4,0-0.8,0-1.1,0.1l-21.9,2.7c0,0,0,0,0,0c0,0,0,0,0,0.1l0,29.5
			l21.9-2.7C41.2,61.9,43.4,59.4,43.4,55.4 M71.5,90.5l0-10.9l-4.6-18h-0.1l-18.6,2.3c0,0,0,0,0,0c0,0,0,0,0,0v0v0l-4.7,19.2l0,10.9
			l13.2-1.6c0,0,0,0,0,0c0,0,0,0,0-0.1l0-6v-0.4l0.4-0.1l0.7-0.1l0.5-0.1v0.5l0,6L71.5,90.5L71.5,90.5
			C71.5,90.5,71.5,90.5,71.5,90.5 M92.9,58.3L71.3,61c0,0,0,0,0,0c0,0,0,0,0,0.1l0,10.6l3.8-0.5l0.5-0.1v0.5l0,18.4l13.1-1.6
			c0,0,0,0,0-0.1l0-18.4v-0.4l0.4-0.1l3.8-0.5c0,0,0,0,0,0c0,0,0,0,0-0.1L92.9,58.3z"/>
	</g>
	<g>
		<path class="st0" d="M75.7,40.9l13.2-1.6c0,0,0,0,0,0c0,0,0,0,0-0.1l0-6.7c0-3.5-1.8-5.5-4.9-5.5c-0.4,0-0.7,0-1.1,0.1l-15.8,2
			c-4,0.5-6.2,3-6.2,7l0,17.2c-0.1,1.5,0.3,2.9,1.2,4.1c1,1,2.3,1.5,3.7,1.4c0.4,0,0.8,0,1.2-0.1l15.8-2c4-0.5,6.2-3,6.1-7v-8.8
			l-13.2,1.6c0,0,0,0,0,0c0,0,0,0,0,0.1l0,5.9l2.2-0.3l0.5-0.1l0,0.5l0,0.7l0,0.4l-0.4,0.1l-3.4,0.4l-0.5,0.1v-0.5l0-13.7v-0.4
			l0.4-0.1l0.7-0.1l0.5-0.1V36V40.9z"/>
		<path class="st0" d="M58.3,59.8C58.3,59.8,58.3,59.8,58.3,59.8l0-29.6l-13.1,1.6c0,0,0,0,0,0c0,0,0,0,0,0.1l0,29.5L58.3,59.8
			C58.2,59.8,58.3,59.8,58.3,59.8z"/>
		<path class="st0" d="M43.4,55.4l0-3.2c0.2-2-1-4-2.9-4.8l-0.7-0.3l0.7-0.5c1.8-1.1,2.9-3.1,2.9-5.2l0-3.2c0-3.6-1.7-5.5-4.9-5.5
			c-0.4,0-0.8,0-1.1,0.1l-21.9,2.7c0,0,0,0,0,0c0,0,0,0,0,0.1l0,29.5l21.9-2.7C41.2,61.9,43.4,59.4,43.4,55.4z M30.2,52v3.4v0.4
			l-0.4,0.1L29.1,56L28.6,56v-0.5v-3.4v-0.4l0.4-0.1l0.7-0.1l0.5-0.1V52z M30.2,41.7v3.4v0.4l-0.4,0.1l-0.7,0.1l-0.5,0.1v-0.5v-3.4
			v-0.4l0.4-0.1l0.7-0.1l0.5-0.1V41.7z"/>
		<path class="st0" d="M58.3,92.2l13.2-1.6l0,0c0,0,0,0,0-0.1h0l0-10.9l-4.6-18h-0.1l-18.6,2.3c0,0,0,0,0,0c0,0,0,0,0,0.1v0v0
			l-4.7,19.2l0,10.9l13.2-1.6c0,0,0,0,0,0c0,0,0,0,0-0.1l0-6v-0.4l0.4-0.1l0.7-0.1l0.5-0.1v0.5L58.3,92.2z M57.9,79.8l-0.8,0.1
			L56.6,80l0-0.5l0.1-8.8v-0.4l0.4-0.1l0.6-0.1l0.5-0.1l0,0.5l0.1,8.8v0.4L57.9,79.8z"/>
		<path class="st0" d="M32.9,84.8l8.8-1.1c0,0,0,0,0,0l0,0l0-6.6L33,78.2l-0.5,0.1l0-0.6l0-0.7l0-0.4l0.4-0.1l8.8-1.1c0,0,0,0,0,0
			c0,0,0,0,0-0.1V64.7l-22.4,2.8c0,0,0,0,0,0c0,0,0,0,0,0.1l0,29.5l13.1-1.6c0,0,0,0,0,0c0,0,0,0,0-0.1l0-10.1v-0.4L32.9,84.8z"/>
		<path class="st0" d="M75.5,90.1l13.1-1.6c0,0,0,0,0-0.1l0-18.4v-0.4l0.4-0.1l3.8-0.5c0,0,0,0,0,0c0,0,0,0,0-0.1l0-10.6L71.3,61
			c0,0,0,0,0,0c0,0,0,0,0,0.1l0,10.6l3.8-0.5l0.5-0.1v0.5L75.5,90.1z"/>
	</g>
</g>
</svg>
