<svg xmlns="http://www.w3.org/2000/svg" width="305.999" height="61.693" viewBox="0 0 305.999 61.693">
  <g id="Group_35" data-name="Group 35" transform="translate(-81 -412)">
    <g id="Group_34" data-name="Group 34" transform="translate(81 412)">
      <path id="Path_211" data-name="Path 211" d="M189.062,118.023q-.265-.287-.525-.579a84.864,84.864,0,0,0,21.088-25.958,80.389,80.389,0,0,0,9.264-33.19c.26.026.518.057.776.089a81.167,81.167,0,0,1-9.349,33.464A85.647,85.647,0,0,1,189.062,118.023Zm19.371-27.135a78.194,78.194,0,0,0,9.157-32.7q-.389-.025-.779-.043a77.406,77.406,0,0,1-9.068,32.375,83.74,83.74,0,0,1-20.57,25.293q.241.307.49.608A84.53,84.53,0,0,0,208.432,90.887Zm-1.849-.932a74.522,74.522,0,0,0,8.929-31.842c-.1,0-.191,0-.287,0-.165,0-.329,0-.494.006A73.749,73.749,0,0,1,205.9,89.588a82.154,82.154,0,0,1-19.973,24.533q.224.321.454.637A82.93,82.93,0,0,0,206.584,89.956Zm-1.916-.852a74.364,74.364,0,0,0,8.764-30.949c-.262.013-.523.03-.784.049a73.6,73.6,0,0,1-8.67,30.534,79.024,79.024,0,0,1-19.165,23.69q.207.336.42.668A79.793,79.793,0,0,0,204.668,89.1Zm-1.867-.88a72.688,72.688,0,0,0,8.551-29.9c-.263.028-.526.059-.787.093a71.936,71.936,0,0,1-8.453,29.444,76.27,76.27,0,0,1-18.368,22.707q.188.351.383.7A77.03,77.03,0,0,0,202.8,88.224Zm-1.876-.837a72.422,72.422,0,0,0,8.347-28.779q-.4.067-.793.142a71.674,71.674,0,0,1-8.243,28.271c-.973,1.834-2.026,3.622-3.143,5.362a77.943,77.943,0,0,1-14.1-13.893q-.188.395-.366.795a78.834,78.834,0,0,0,14.044,13.757c-.207.316-.419.628-.631.94a80.164,80.164,0,0,1-13.954-13.415q-.166.416-.322.837A81.072,81.072,0,0,0,195.6,94.628c-.233.336-.472.668-.711,1a82.28,82.28,0,0,1-13.612-12.819q-.142.439-.273.884a83.222,83.222,0,0,0,13.429,12.569c-.251.341-.506.678-.762,1.015A83.251,83.251,0,0,1,180.589,85.23q-.114.465-.216.934A84.2,84.2,0,0,0,193.2,97.895q-.4.51-.8,1.014a84.82,84.82,0,0,1-12.331-11.155q-.083.489-.153.983A85.671,85.671,0,0,0,191.9,99.509q-.447.542-.9,1.076a85.163,85.163,0,0,1-11.3-10.022q-.047.52-.078,1.044a86.131,86.131,0,0,0,10.863,9.567q-.457.521-.921,1.032a86.433,86.433,0,0,1-10.005-8.762c0,.112,0,.223,0,.335,0,.259,0,.517.01.775a86.71,86.71,0,0,0,9.472,8.228,68.447,68.447,0,0,1-6.222,5.908q.169.366.345.727A73.629,73.629,0,0,0,200.925,87.387Zm46.712,21.3q-.239.517-.493,1.025-1.634.083-3.282.085a75.373,75.373,0,0,1-32.514-7.758q-1.783-.859-3.516-1.8-.3.455-.6.906,1.756.945,3.561,1.815c11.758,5.648,24.148,8.324,35.835,7.745q-.217.4-.443.8c-.9.038-1.8.061-2.707.061a76.8,76.8,0,0,1-33.022-7.9q-1.859-.893-3.665-1.869-.34.5-.686.985,1.889,1.016,3.832,1.946a76.386,76.386,0,0,0,35.62,7.824q-.249.4-.509.8c-.683.022-1.368.036-2.055.036a78.128,78.128,0,0,1-33.392-7.951q-2.005-.957-3.954-2.009-.354.491-.714.976,2.064,1.1,4.189,2.1a78.548,78.548,0,0,0,35.329,7.73q-.281.4-.572.794c-.478.01-.957.017-1.436.017a80.028,80.028,0,0,1-33.652-7.834q-2.2-1.029-4.331-2.173-.381.5-.769,1a81.8,81.8,0,0,0,39.512,9.872q-.315.4-.643.787c-.254,0-.508.008-.761.008a83.087,83.087,0,0,1-38.6-10.045q-.428.538-.865,1.068,2.56,1.351,5.2,2.532a83.051,83.051,0,0,0,34.3,7.266q-.354.4-.719.784h-.045a83.866,83.866,0,0,1-33.858-7.338q-2.738-1.219-5.392-2.63-.441.526-.892,1.045a84.757,84.757,0,0,0,39.485,9.644h0c-.263.263-.532.52-.8.775a85.382,85.382,0,0,1-33.089-6.915q-3.121-1.339-6.108-2.914a85.517,85.517,0,0,1-9.9,9.538q-.283-.272-.56-.548A84.451,84.451,0,0,0,211.5,92.437a85.254,85.254,0,0,0,9.468-33.865q.505.082,1.006.178a71.673,71.673,0,0,0,8.243,28.271A72.888,72.888,0,0,0,247.637,108.69Zm-20.086-1.657a85.911,85.911,0,0,1-9.29-14.237q-1.658-3.188-3.034-6.477-1.38,3.287-3.037,6.477-1.822,3.5-3.931,6.791,1.692.911,3.429,1.752A79.614,79.614,0,0,0,227.551,107.034Zm3.393.734A85.355,85.355,0,0,1,216.332,83.56q-.332.874-.684,1.741,1.483,3.627,3.306,7.136a85.054,85.054,0,0,0,9.839,14.884Q229.868,107.561,230.944,107.768Zm3.349.561a85.348,85.348,0,0,1-12.275-17.441,81.8,81.8,0,0,1-4.6-10.363q-.327.971-.678,1.934a84.254,84.254,0,0,0,4.085,9.028,85.318,85.318,0,0,0,11.344,16.5Q233.232,108.176,234.293,108.329Zm3.244.387a83.8,83.8,0,0,1-13.67-18.76,79,79,0,0,1-5.417-12.705q-.3,1.036-.633,2.064a80.918,80.918,0,0,0,4.891,11.207,84.545,84.545,0,0,0,12.8,17.969Q236.521,108.618,237.536,108.715Zm3.055.221A80.832,80.832,0,0,1,225.783,89.1a77.733,77.733,0,0,1-6.289-15.762q-.31,1.281-.659,2.552a78.052,78.052,0,0,0,5.721,13.694,82.956,82.956,0,0,0,14.175,19.231C239.352,108.868,239.972,108.905,240.592,108.936Zm3.156.082a77.627,77.627,0,0,1-16.1-20.794,74.824,74.824,0,0,1-7.159-19.551q-.282,1.53-.618,3.046a76.685,76.685,0,0,0,6.6,17.02,79.9,79.9,0,0,0,15.3,20.247Q242.762,109.016,243.748,109.018Zm1.156-.008q.923-.015,1.842-.055a73.774,73.774,0,0,1-17.221-21.568,73,73,0,0,1-8.05-25.578q-.244,2.368-.615,4.7a73.685,73.685,0,0,0,7.479,21.343A76.7,76.7,0,0,0,244.9,109.009Z" transform="translate(-179.555 -58.11)" fill="#131480"/>
      <path id="Path_212" data-name="Path 212" d="M728.8,113.664c-2.974-2.721-7.508-4.1-13.477-4.1-5.592,0-10.03,1.409-13.191,4.189s-4.785,7.022-4.785,12.569v34.431l.348.064a22.326,22.326,0,0,0,8.059,0l.348-.064V150.159h10.83c5.489,0,9.637-1.509,12.328-4.485s4.04-7.232,4.04-12.685v-6.668C733.294,120.654,731.781,116.4,728.8,113.664Zm-4.256,12.252v7.294a23.959,23.959,0,0,1-.381,4.578,6.472,6.472,0,0,1-1.333,2.65,5.515,5.515,0,0,1-2.732,1.654,16.964,16.964,0,0,1-4.7.547h-9.3V125.916a16.339,16.339,0,0,1,.4-3.922,6.422,6.422,0,0,1,1.386-2.666,5.867,5.867,0,0,1,2.794-1.679,16.657,16.657,0,0,1,4.72-.566,17.137,17.137,0,0,1,4.739.548,5.279,5.279,0,0,1,2.706,1.683,6.913,6.913,0,0,1,1.321,2.7A16.81,16.81,0,0,1,724.541,125.916ZM610.107,113.654c-2.712-2.743-6.717-4.134-11.9-4.134-11.109,0-16.741,5.739-16.741,17.058v6.668c0,5.894,1.526,10.23,4.537,12.887,2.995,2.643,7.692,3.983,13.962,3.983h10.446l.064-.348a18.948,18.948,0,0,0,0-6.842l-.064-.348h-.354l-10.092,0c-3.619,0-6.242-.59-7.8-1.754-1.41-1.055-2.286-3.5-2.286-6.393v-.852h24.3v-.425c0-.865,0-2.638.006-4.25,0-1.342,0-2.573,0-3.072C614.193,120.494,612.818,116.4,610.107,113.654Zm-20.228,10.713c0-4.864,2.729-7.33,8.11-7.33,5.453,0,8.218,2.466,8.218,7.33v1.69H589.879Zm100.748-7.974a9.672,9.672,0,0,0-3.732-4.072,17.653,17.653,0,0,0-5.534-2.113,35.533,35.533,0,0,0-7.17-.646h-9.073l-.064.348a18.964,18.964,0,0,0,0,6.842l.064.349,9.522-.022a14.042,14.042,0,0,1,6.575,1.212c1.39.769,2.066,2.161,2.066,4.254V126.1H675.24a31.1,31.1,0,0,0-6.61.629,15.443,15.443,0,0,0-5.026,2.04,9.048,9.048,0,0,0-3.32,3.776,11.858,11.858,0,0,0-1.128,5.37c0,8.124,5.386,12.243,16.009,12.243,5.726,0,9.981-1.031,12.647-3.065,2.7-2.061,4.073-5.307,4.073-9.647V122.575A13.965,13.965,0,0,0,690.627,116.394Zm-22.17,23.912a5.261,5.261,0,0,1-.547-2.54c0-2.007.558-4.148,7.224-4.148h8.148v3.471a6.525,6.525,0,0,1-.417,2.471,4.281,4.281,0,0,1-1.053,1.575,4.723,4.723,0,0,1-1.737.926,10.927,10.927,0,0,1-2.271.471c-.77.073-1.709.11-2.788.11a16.639,16.639,0,0,1-2.775-.2,9,9,0,0,1-2.236-.7A3.261,3.261,0,0,1,668.457,140.306Zm140.594-1.345c0,3.858-1.3,6.728-3.87,8.531-2.522,1.77-6.581,2.667-12.064,2.667h-13.61l-.064-.348a18.963,18.963,0,0,1,0-6.842l.064-.348,14.323.018a14.773,14.773,0,0,0,5.336-.672c.881-.388,1.357-1.761,1.357-2.856a2.614,2.614,0,0,0-.872-2.053,16.264,16.264,0,0,0-3.786-2.147l-8.276-3.653a21.086,21.086,0,0,1-3.246-1.693,12.145,12.145,0,0,1-2.426-2.125,8.112,8.112,0,0,1-1.66-3.009,13.538,13.538,0,0,1-.525-3.967c0-3.694,1.237-6.471,3.677-8.255,2.4-1.755,6.233-2.645,11.4-2.645h12.18l.064.348a18.978,18.978,0,0,1,0,6.842l-.064.348-12.293-.018a12.94,12.94,0,0,0-5.076.684,3.174,3.174,0,0,0-1.28,2.7,2.632,2.632,0,0,0,.672,1.892,8.553,8.553,0,0,0,2.672,1.636l8.911,3.8a22.481,22.481,0,0,1,4.542,2.434,9.3,9.3,0,0,1,2.847,3.494h0A11.872,11.872,0,0,1,809.051,138.961Zm-38.844-25.3c-2.974-2.721-7.508-4.1-13.478-4.1-5.592,0-10.03,1.409-13.191,4.189s-4.785,7.022-4.785,12.569v34.431l.348.064a22.325,22.325,0,0,0,8.058,0l.348-.064V150.159h10.83c5.489,0,9.637-1.509,12.328-4.485s4.04-7.232,4.04-12.685v-6.668C774.705,120.654,773.192,116.4,770.207,113.664Zm-4.256,12.252v7.294a23.945,23.945,0,0,1-.381,4.578,6.472,6.472,0,0,1-1.333,2.65,5.515,5.515,0,0,1-2.732,1.654,16.966,16.966,0,0,1-4.7.547h-9.3V125.916a16.33,16.33,0,0,1,.4-3.922,6.419,6.419,0,0,1,1.385-2.666,5.867,5.867,0,0,1,2.794-1.679,16.656,16.656,0,0,1,4.72-.566,17.139,17.139,0,0,1,4.739.548,5.279,5.279,0,0,1,2.706,1.683,6.915,6.915,0,0,1,1.321,2.7A16.817,16.817,0,0,1,765.951,125.916Zm-129.162,8.145c-5.7,4.452-8.363,9.608-9.042,15.295l-.039.33v0l-.364.063a24.707,24.707,0,0,1-8.44,0l-.364-.063.043-.418c.733-7.235,4.587-13.973,11.765-19.432-7.178-5.459-11.032-12.2-11.765-19.432l-.043-.418.364-.063a24.707,24.707,0,0,1,8.44,0l.364.063v0l.039.33c.679,5.686,3.344,10.843,9.042,15.295,5.7-4.452,8.363-9.609,9.042-15.295l.039-.33v0l.364-.063a24.708,24.708,0,0,1,8.44,0l.364.063-.043.418c-.733,7.235-4.587,13.973-11.765,19.432,7.179,5.459,11.033,12.2,11.765,19.432l.043.418-.364.063a24.707,24.707,0,0,1-8.44,0l-.364-.063v0l-.039-.33C645.152,143.669,642.487,138.512,636.789,134.061Z" transform="translate(-503.052 -99.49)" fill="#131480"/>
    </g>
  </g>
</svg>
