<?xml version="1.0" encoding="utf-8"?>
<!-- Generator: Adobe Illustrator 26.2.1, SVG Export Plug-In . SVG Version: 6.00 Build 0)  -->
<svg version="1.1" id="Laag_1" xmlns="http://www.w3.org/2000/svg" xmlns:xlink="http://www.w3.org/1999/xlink" x="0px" y="0px"
	 viewBox="0 0 776.1 509.8" style="enable-background:new 0 0 776.1 509.8;" xml:space="preserve">
<style type="text/css">
	.st0{fill:#FF006C;}
</style>
<g>
	<path class="st0" d="M560.3,275.2c-2.6,5,0.5,10.8,3.3,12.3l8.7-16.5C569.4,269.5,562.9,270.2,560.3,275.2z"/>
	<path class="st0" d="M536.3,350.5c-5.9-3.1-12.4-2.6-15.3,3.1c-3,5.6,0.3,11.3,6.2,14.4c5.9,3.1,12.4,2.6,15.3-3.1
		C545.5,359.2,542.2,353.5,536.3,350.5z"/>
	<path class="st0" d="M639.6,153.9c-5.9-3.1-12.4-2.6-15.3,3.1c-3,5.6,0.3,11.3,6.2,14.4c5.9,3.1,12.4,2.6,15.3-3.1
		C648.8,162.6,645.5,157,639.6,153.9z"/>
	<path class="st0" d="M776.1,117.7C776.8,53.4,725.3,0.8,661.1,0C610.5-0.6,565.5,30.5,549,75.5l0,0c-0.8,2.4-27,63.2-57.6,129
		L418,76.8l0,0c-12.8-24.4-38.3-41.2-67.8-41.6c-30.7-0.4-57.5,17.2-70.3,42.9l0,0l0,0c-0.7,1.5-1.4,3-2.1,4.5l-92.9,204L72.9,90.7
		l0,0c-6.5-12-19.1-20.2-33.7-20.3C17.8,70.1,0.3,87.3,0,108.7c-0.1,6.2,1.3,12.1,3.8,17.3l132.8,305c0.4,1,0.8,2,1.3,3l0,0l0,0
		c9.2,19.5,28.9,33.2,52,33.4c20.4,0.2,38.5-10.1,49.1-26l0,0l0.2-0.3c0.8-1.2,1.6-2.4,2.3-3.7l96-157.5l75.2,172.7l0,0
		c15,33.4,48.3,56.8,87.3,57.2c35.9,0.4,67.5-18.8,84.5-47.6l0,0l167.4-274.9c5.1-6.7,9.5-13.9,13.2-21.6l0.2-0.3l0,0
		C772,150.9,775.9,134.8,776.1,117.7z M531.5,413.5c-2.4,4.6-5.6,4.9-10.7,4.1l-17.6-2.9l-0.1,0.2l12.4,12.9
		c3.5,3.7,5.1,6.5,2.7,11.1c-2.3,4.3-5.5,5.3-10.4,4.6l-29.5-4.2c-3.4-0.4-5.8-0.7-8.1-1.8c-3.3-1.8-5-5.4-2.7-9.6
		c1.6-3,4.4-4.4,7.7-3.7l23.9,4.6l0.1-0.2l-14.9-15.1c-2.8-2.8-6.1-6.1-3.7-10.7s7-3.7,10.9-3l20.8,3.7l0.1-0.2l-17.4-17
		c-2.4-2.3-2.9-5.4-1.3-8.4c2.2-4.2,6.2-5,9.5-3.2c2.2,1.4,3.8,3.1,6.1,5.7l20.2,21.9C532.8,405.9,533.8,409.1,531.5,413.5z
		 M561.8,355.8c-1.6,3.1-4.8,3.9-7.2,3.8c2,4.7,1.7,8.7-0.8,13.5c-5.8,11.1-20.5,14.3-33.3,7.6c-12.8-6.7-18.5-20.6-12.7-31.7
		c2.5-4.8,5.6-7.3,10.6-8.4c-1.5-1.9-2.6-5-0.9-8.1c2-3.7,6.3-4.8,9.9-2.9l31.1,16.4C562.3,347.9,563.8,352,561.8,355.8z
		 M572.3,335.8c-2,3.7-6.3,4.8-9.9,2.9l-31.1-16.4c-3.7-1.9-5.2-6.1-3.3-9.8c1.8-3.4,5.1-4.4,7.4-4.2c-1.4-3.4-2.1-7.8-0.3-11.4
		c1.7-3.3,6-5.1,10-3c4.4,2.3,3.7,6.2,2.6,11.6c-1.3,6.4-0.8,9,5.8,12.4l15.5,8.1C572.7,327.9,574.3,332,572.3,335.8z M595.7,293.4
		c-7.2,13.7-21.9,16.9-34.7,10.2c-12.2-6.4-18.1-21.3-11.3-34.3c6.6-12.6,21.3-15.1,32.4-9.3c4.5,2.4,4.4,5,2.3,9.1l-12.1,23
		c2.7,1.4,8.2,1.7,12.4-6.5c3.3-6.3,1.3-12.2,2.9-15.1c1.5-2.9,5-4.1,8.2-2.4C602.1,271.2,600.7,283.7,595.7,293.4z M638.8,209.3
		c-2,3.7-6.3,4.8-9.9,2.9l-20.1-10.6c-4-2.1-8.8-1.8-11,2.3c-2.2,4.2,0.3,8.3,4.3,10.4l20.1,10.6c3.7,1.9,5.2,6.1,3.3,9.8
		s-6.3,4.8-9.9,2.9L595.4,227c-4-2.1-8.8-1.8-11,2.3c-2.2,4.2,0.3,8.3,4.3,10.4l20.1,10.6c3.7,1.9,5.2,6.1,3.3,9.8
		c-2,3.7-6.3,4.8-9.9,2.9L571,246.7c-3.7-1.9-5.2-6.1-3.3-9.8c1.8-3.4,5.1-4.4,7.4-4.2c-2.1-3.7-1.5-8.9,0.8-13.5
		c1.9-3.7,5.9-8,11.4-9.1c-0.7-4.2-1.6-9.6,1.3-15c4.6-8.8,12.9-13.4,23.3-7.9l23.6,12.4C639.2,201.4,640.8,205.6,638.8,209.3z
		 M666.9,198.6c-2,3.7-6.3,4.8-9.9,2.9l-48.7-25.6c-3.7-1.9-5.2-6.1-3.3-9.8c1.6-3.1,4.8-3.9,7.2-3.8c-2-4.7-1.7-8.7,0.8-13.5
		c5.8-11.1,20.5-14.3,33.3-7.6c12.8,6.7,18.5,20.6,12.7,31.7c-2.9,5.5-6,7.3-9.1,8.6l13.8,7.2C667.3,190.7,668.9,194.8,666.9,198.6z
		 M683.1,126.9c-7.2,13.7-21.9,16.9-34.7,10.2c-12.2-6.4-18.1-21.3-11.3-34.3c6.6-12.6,21.3-15.1,32.4-9.3c4.5,2.4,4.4,5,2.3,9.1
		l-12.1,23c2.7,1.4,8.2,1.7,12.4-6.5c3.3-6.3,1.3-12.2,2.9-15.1c1.5-2.9,5-4.1,8.2-2.4C689.6,104.8,688.2,117.3,683.1,126.9z
		 M699.4,94c-2,3.7-6.3,4.8-9.9,2.9l-50-26.3c-3.7-1.9-5.2-6.1-3.3-9.8c2-3.7,6.3-4.8,9.9-2.9l50,26.3
		C699.8,86.1,701.4,90.2,699.4,94z"/>
	<path class="st0" d="M647.8,108.8c-2.6,5,0.5,10.8,3.3,12.3l8.7-16.5C656.9,103.1,650.4,103.8,647.8,108.8z"/>
</g>
</svg>
